<svg width="16" height="16" viewBox="0 0 16 16" fill="none" xmlns="http://www.w3.org/2000/svg">
<path opacity="0.4" d="M2.06175 6.26942H13.9444" stroke="#0601B4" stroke-linecap="round" stroke-linejoin="round"/>
<path opacity="0.4" fill-rule="evenodd" clip-rule="evenodd" d="M4.53859 8.87318C4.53859 8.59704 4.76245 8.37318 5.03859 8.37318H5.04477C5.32091 8.37318 5.54477 8.59704 5.54477 8.87318C5.54477 9.14933 5.32091 9.37318 5.04477 9.37318H5.03859C4.76245 9.37318 4.53859 9.14933 4.53859 8.87318ZM8.00307 8.37318C7.72693 8.37318 7.50307 8.59704 7.50307 8.87318C7.50307 9.14933 7.72693 9.37318 8.00307 9.37318H8.00925C8.28539 9.37318 8.50925 9.14933 8.50925 8.87318C8.50925 8.59704 8.28539 8.37318 8.00925 8.37318H8.00307ZM10.9614 8.37318C10.6852 8.37318 10.4614 8.59704 10.4614 8.87318C10.4614 9.14933 10.6852 9.37318 10.9614 9.37318H10.9676C11.2437 9.37318 11.4676 9.14933 11.4676 8.87318C11.4676 8.59704 11.2437 8.37318 10.9676 8.37318H10.9614ZM10.9614 10.9641C10.6852 10.9641 10.4614 11.1879 10.4614 11.4641C10.4614 11.7402 10.6852 11.9641 10.9614 11.9641H10.9676C11.2437 11.9641 11.4676 11.7402 11.4676 11.4641C11.4676 11.1879 11.2437 10.9641 10.9676 10.9641H10.9614ZM7.50307 11.4641C7.50307 11.1879 7.72693 10.9641 8.00307 10.9641H8.00925C8.28539 10.9641 8.50925 11.1879 8.50925 11.4641C8.50925 11.7402 8.28539 11.9641 8.00925 11.9641H8.00307C7.72693 11.9641 7.50307 11.7402 7.50307 11.4641ZM5.03859 10.9641C4.76245 10.9641 4.53859 11.1879 4.53859 11.4641C4.53859 11.7402 4.76245 11.9641 5.03859 11.9641H5.04477C5.32091 11.9641 5.54477 11.7402 5.54477 11.4641C5.54477 11.1879 5.32091 10.9641 5.04477 10.9641H5.03859Z" fill="#0601B4"/>
<path d="M10.6958 1.33336V3.52721" stroke="#0601B4" stroke-linecap="round" stroke-linejoin="round"/>
<path d="M5.31033 1.33336V3.52721" stroke="#0601B4" stroke-linecap="round" stroke-linejoin="round"/>
<path fill-rule="evenodd" clip-rule="evenodd" d="M10.8255 2.3862H5.18064C3.22285 2.3862 2 3.47682 2 5.48155V11.5146C2 13.5509 3.22285 14.6667 5.18064 14.6667H10.8193C12.7833 14.6667 14 13.5698 14 11.5651V5.48155C14.0062 3.47682 12.7895 2.3862 10.8255 2.3862Z" stroke="#0601B4" stroke-linecap="round" stroke-linejoin="round"/>
</svg>
