<svg width="24" height="24" viewBox="0 0 24 24" fill="none" xmlns="http://www.w3.org/2000/svg">
<path d="M16.125 4.125H7.875V19.875H16.125V4.125Z" fill="#EBF7F7"/>
<path d="M7.875 4.125H2.625C1.3875 4.125 0.375 5.025 0.375 6.3V17.7C0.375 18.975 1.3875 19.875 2.625 19.875H7.875V4.125Z" fill="#589F58"/>
<path d="M21.375 4.125H16.125V19.875H21.375C22.6125 19.875 23.625 18.975 23.625 17.7V6.3C23.625 5.025 22.6125 4.125 21.375 4.125Z" fill="#589F58"/>
<path d="M21.375 4.125H16.125V15.4125L21.3 19.875C22.5375 19.875 23.625 18.975 23.625 17.7V6.3C23.625 5.025 22.6125 4.125 21.375 4.125Z" fill="#479347"/>
<path d="M16.125 15.4125V4.125H7.875V8.5875L16.125 15.4125Z" fill="#E2F2F1"/>
<path d="M7.875 4.125H2.625L7.875 8.5875V4.125Z" fill="#479347"/>
<path d="M16.125 19.875H21.375C22.6125 19.875 23.625 19.125 23.625 17.625H16.125V19.875Z" fill="#398439"/>
<path d="M16.125 17.625H7.875V19.875H16.125V17.625Z" fill="#D6EAE8"/>
<path d="M0.375 17.625C0.375 19.125 1.3875 19.875 2.625 19.875H7.875V17.625H0.375Z" fill="#398439"/>
<path d="M21.375 4.125H16.125V8.1L23.625 10.425V6.3C23.625 5.025 22.6125 4.125 21.375 4.125Z" fill="#398439"/>
<path d="M16.125 8.1V4.125H7.875V5.6625L16.125 8.1Z" fill="#D6EAE8"/>
<path d="M7.875 4.125H2.625L7.875 5.6625V4.125Z" fill="#398439"/>
</svg>
